HIERARCHY
ROOT Hips
{
  OFFSET 0.0000 0.0000 0.0000
  CHANNELS 6 Xposition Yposition Zposition Zrotation Xrotation Yrotation
  JOINT Chest
  {
    OFFSET -0.1728 10.2870 0.1254
    CHANNELS 3 Zrotation Xrotation Yrotation
    JOINT Chest2
    {
      OFFSET 0.3229 15.8173 -2.6440
      CHANNELS 3 Zrotation Xrotation Yrotation
      JOINT LeftCollar
      {
        OFFSET -0.0683 16.8828 0.2989
        CHANNELS 3 Zrotation Xrotation Yrotation
        JOINT LeftShoulder
        {
          OFFSET 16.0110 -3.0750 2.0528
          CHANNELS 3 Zrotation Xrotation Yrotation
          JOINT LeftElbow
          {
            OFFSET 2.6153 -25.4187 1.7231
            CHANNELS 3 Zrotation Xrotation Yrotation
            JOINT LeftWrist
            {
              OFFSET 2.3595 -22.4741 1.0488
              CHANNELS 3 Zrotation Xrotation Yrotation
              End Site
              {
                  OFFSET 1.4871 -13.9919 1.1523
              }
            }
          }
        }
      }
      JOINT RightCollar
      {
        OFFSET -0.0683 16.8828 0.2989
        CHANNELS 3 Zrotation Xrotation Yrotation
        JOINT RightShoulder
        {
          OFFSET -16.3743 -2.4390 2.0841
          CHANNELS 3 Zrotation Xrotation Yrotation
          JOINT RightElbow
          {
            OFFSET -2.6865 -25.0857 1.2959
            CHANNELS 3 Zrotation Xrotation Yrotation
            JOINT RightWrist
            {
              OFFSET -2.3810 -22.8348 1.0329
              CHANNELS 3 Zrotation Xrotation Yrotation
              End Site
              {
                  OFFSET -1.4652 -14.7234 1.0705
              }
            }
          }
        }
      }
      JOINT Neck
      {
        OFFSET -0.0683 16.8828 0.2989
        CHANNELS 3 Zrotation Xrotation Yrotation
        JOINT Head
        {
          OFFSET 0.1300 11.4121 4.7143
          CHANNELS 3 Zrotation Xrotation Yrotation
          End Site
          {
              OFFSET 0.0452 18.0438 0.3379
          }
        }
      }
    }
  }
  JOINT LeftHip
  {
    OFFSET 9.3186 -0.0408 3.5432
    CHANNELS 3 Zrotation Xrotation Yrotation
    JOINT LeftKnee
    {
      OFFSET -0.5435 -48.8357 0.3144
      CHANNELS 3 Zrotation Xrotation Yrotation
      JOINT LeftAnkle
      {
        OFFSET 0.2027 -38.4920 -4.2946
        CHANNELS 3 Zrotation Xrotation Yrotation
        End Site
        {
            OFFSET 1.1879 -7.4484 17.8063
        }
      }
    }
  }
  JOINT RightHip
  {
    OFFSET -10.0712 -0.0749 3.1483
    CHANNELS 3 Zrotation Xrotation Yrotation
    JOINT RightKnee
    {
      OFFSET 0.3157 -48.5179 0.1055
      CHANNELS 3 Zrotation Xrotation Yrotation
      JOINT RightAnkle
      {
        OFFSET -1.1248 -38.4399 -3.4305
        CHANNELS 3 Zrotation Xrotation Yrotation
        End Site
        {
            OFFSET -1.3336 -7.3741 17.3830
        }
      }
    }
  }
}
MOTION
Frames:	16
Frame Time:	0.033333
156.9327 99.6886 547.4890 -21.88 14.62 28.60 4.18 -2.91 -6.18 4.24 -2.94 -6.13 -0.18 -0.70 0.26 75.82 1.18 -17.52 9.65 -7.74 -1.71 -4.77 0.03 -54.53 -0.01 -0.80 0.01 -147.84 -37.52 -23.80 -15.18 15.39 3.58 9.42 -12.94 4.02 4.14 4.93 15.89 2.39 11.99 16.18 6.79 -12.28 18.66 0.11 -0.74 -0.03 0.35 -4.50 19.47 5.60 -12.99 -8.59 -0.10 2.81 0.22 0.54 22.50 -2.90 
157.3428 99.6938 547.7452 -23.15 13.31 28.51 5.63 -3.56 -4.92 5.70 -3.58 -4.87 -0.18 -0.70 0.26 70.60 12.46 -16.11 9.68 -5.74 -1.65 -3.56 0.85 -54.17 -0.01 -0.80 0.01 -151.51 -30.30 -22.15 -15.46 20.94 3.71 6.35 -18.19 -0.80 3.30 5.75 14.45 1.72 12.86 14.75 7.61 -9.19 17.88 0.09 -5.70 -0.24 0.35 -2.94 19.80 3.92 -2.65 -7.21 -0.12 6.09 -0.05 -0.29 27.11 -8.36 
157.9225 99.3075 548.1901 -23.79 11.04 28.15 7.19 -3.67 -3.09 7.25 -3.69 -3.03 -0.18 -0.70 0.26 65.39 21.81 -13.92 9.72 -3.18 -1.56 -2.14 1.76 -52.80 -0.01 -0.80 0.01 -155.36 -22.23 -22.24 -15.51 21.86 3.73 1.33 -19.48 -4.09 2.49 6.56 12.22 1.17 13.73 12.50 8.44 -5.34 16.34 0.06 -9.30 -0.40 0.34 -2.58 20.81 1.00 9.04 -6.29 -0.03 9.80 -0.21 -0.11 32.56 -12.94 
158.5823 98.8567 548.6410 -24.00 8.28 27.54 8.78 -3.37 -0.74 8.84 -3.38 -0.69 -0.18 -0.70 0.26 60.16 28.56 -11.20 9.77 -0.01 -1.46 -0.77 2.33 -49.73 -0.01 -0.80 0.01 -159.07 -12.94 -25.42 -15.20 15.66 3.58 -4.42 -14.76 -3.40 1.69 7.34 9.30 0.73 14.57 9.54 9.35 -1.32 14.17 0.04 -11.57 -0.50 0.35 -2.92 22.64 -2.94 20.93 -4.80 0.08 14.13 -0.36 0.40 37.19 -16.42 
159.2088 98.6338 548.9599 -24.02 5.49 26.93 10.31 -2.91 1.79 10.36 -2.92 1.85 -0.18 -0.70 0.26 55.25 32.68 -8.68 9.81 3.45 -1.35 0.45 2.16 -45.05 -0.01 -0.80 0.01 -162.01 -3.07 -31.58 -14.63 3.06 3.39 -10.40 -5.08 2.04 0.84 8.17 6.03 0.28 15.45 6.20 10.36 2.19 11.66 0.03 -12.71 -0.55 0.40 -3.34 25.01 -7.83 31.72 -1.86 0.20 19.15 -0.53 0.72 40.14 -18.66 
159.7083 98.7661 549.0886 -24.03 3.03 26.68 11.72 -2.56 4.08 11.77 -2.56 4.14 -0.18 -0.70 0.26 51.32 34.57 -7.21 9.84 6.71 -1.25 1.68 1.10 -39.56 -0.01 -0.80 0.01 -163.96 5.71 -39.16 -13.99 -11.88 3.32 -17.31 5.79 10.42 -0.12 9.16 2.86 -0.29 16.47 2.96 11.41 4.75 9.18 0.03 -13.06 -0.57 0.46 -3.34 27.28 -13.40 40.40 2.82 0.30 24.56 -0.71 0.76 41.53 -19.71 
160.0535 99.1764 549.0422 -24.06 1.06 27.05 12.98 -2.49 5.72 13.03 -2.48 5.78 -0.18 -0.70 0.26 48.91 34.64 -7.21 9.87 9.37 -1.17 3.18 -0.69 -34.17 -0.01 -0.80 0.01 -165.51 11.67 -45.92 -13.45 -24.21 3.39 -25.14 13.81 18.58 -1.21 10.34 0.26 -1.05 17.66 0.29 12.36 6.27 7.04 0.03 -12.97 -0.56 0.49 -2.77 28.73 -18.90 46.69 8.44 0.39 29.69 -0.89 0.65 41.83 -19.81 
160.2946 99.6543 548.8669 -24.01 -0.44 28.04 14.00 -2.67 6.55 14.05 -2.66 6.61 -0.18 -0.70 0.26 48.25 33.08 -8.59 9.88 11.29 -1.11 5.02 -2.74 -29.40 -0.01 -0.80 0.01 -167.37 14.13 -50.23 -13.10 -31.13 3.49 -32.60 17.41 23.58 -2.38 11.54 -1.54 -1.99 18.85 -1.56 13.05 7.05 5.38 0.03 -12.74 -0.55 0.48 -1.92 29.12 -23.33 50.89 13.73 0.47 33.72 -1.05 0.54 41.51 -19.36 
160.5264 99.9892 548.5900 -23.76 -1.56 29.39 14.76 -2.95 6.66 14.81 -2.94 6.73 -0.18 -0.70 0.26 49.18 29.80 -10.84 9.89 12.59 -1.07 7.01 -4.47 -25.39 -0.01 -0.80 0.01 -169.42 13.54 -52.23 -13.00 -33.13 3.54 -38.70 17.74 24.63 -3.58 12.44 -2.52 -3.07 19.74 -2.57 13.33 7.38 4.16 0.04 -12.40 -0.54 0.46 -1.23 28.62 -25.99 53.26 17.58 0.53 36.10 -1.15 0.49 40.84 -18.86 
160.8333 100.0805 548.1920 -23.25 -2.32 30.74 15.18 -3.10 6.32 15.23 -3.09 6.38 -0.18 -0.70 0.26 51.26 24.73 -13.36 9.89 13.45 -1.05 8.81 -5.50 -22.07 -0.01 -0.80 0.01 -170.79 10.90 -53.44 -13.02 -32.65 3.53 -43.18 16.76 23.30 -4.70 12.70 -2.84 -4.14 20.00 -2.91 13.12 7.46 3.35 0.04 -11.84 -0.51 0.45 -1.01 27.61 -26.87 53.83 19.58 0.54 36.54 -1.16 0.47 39.86 -18.86 
161.2451 99.9669 547.6107 -22.54 -2.64 31.75 15.33 -3.01 5.75 15.38 -3.00 5.82 -0.18 -0.70 0.26 53.94 18.05 -15.66 9.90 13.89 -1.04 10.10 -5.74 -19.35 -0.01 -0.80 0.01 -170.77 7.06 -55.38 -13.06 -32.00 3.51 -45.88 15.77 21.65 -5.68 12.14 -2.69 -5.15 19.45 -2.74 12.40 7.11 3.05 0.05 -10.75 -0.46 0.44 -1.36 26.42 -26.32 52.37 19.83 0.50 35.02 -1.10 0.48 38.58 -19.79 
161.7261 99.7728 546.7660 -21.79 -2.38 32.21 15.16 -2.67 5.13 15.21 -2.66 5.19 -0.18 -0.70 0.26 56.87 10.22 -17.49 9.90 13.79 -1.04 10.78 -5.33 -17.24 -0.01 -0.80 0.01 -169.27 2.27 -58.76 -13.05 -32.11 3.51 -46.51 15.08 20.75 -6.40 10.75 -2.16 -5.93 18.06 -2.18 11.18 6.03 3.49 0.07 -8.94 -0.38 0.43 -2.16 25.22 -24.96 48.65 18.71 0.42 31.50 -0.96 0.47 37.05 -21.74 
162.1955 99.6199 545.5905 -21.16 -1.34 32.05 14.77 -2.18 4.52 14.82 -2.18 4.58 -0.18 -0.70 0.26 59.89 1.77 -18.79 9.89 12.94 -1.06 10.94 -4.41 -15.74 -0.01 -0.80 0.01 -166.80 -3.66 -63.34 -13.03 -32.60 3.52 -45.09 14.54 20.45 -6.86 8.69 -1.26 -6.51 16.00 -1.24 9.57 3.83 4.87 0.09 -6.28 -0.27 0.41 -3.18 23.97 -23.18 42.59 16.39 0.32 26.13 -0.76 0.42 35.51 -24.35 
162.5637 99.5545 544.0607 -20.69 0.62 31.26 14.06 -1.67 3.98 14.10 -1.67 4.05 -0.18 -0.70 0.26 63.12 -6.87 -19.62 9.88 11.28 -1.11 10.78 -3.11 -14.80 -0.01 -0.80 0.01 -164.16 -10.92 -68.26 -13.02 -32.67 3.53 -42.13 14.05 19.71 -6.96 6.12 0.01 -6.77 13.43 0.07 7.69 0.33 7.23 0.10 -2.91 -0.12 0.39 -4.19 22.61 -21.15 34.33 12.76 0.23 19.19 -0.54 0.31 34.16 -26.80 
162.7650 99.5256 542.2207 -20.30 3.50 29.96 13.04 -1.25 3.53 13.09 -1.25 3.59 -0.18 -0.70 0.26 66.79 -15.53 -20.10 9.86 8.96 -1.18 10.48 -1.61 -14.13 -0.01 -0.80 0.01 -162.04 -19.44 -72.67 -13.08 -31.50 3.50 -38.34 13.55 17.32 -6.76 3.24 1.61 -6.77 10.55 1.70 5.70 -4.39 10.36 0.11 0.95 0.04 0.36 -5.11 21.14 -18.88 24.15 7.60 0.16 11.31 -0.30 0.18 33.16 -28.00 
162.7779 99.4117 540.1990 -19.74 7.09 28.33 11.63 -0.93 3.13 11.68 -0.93 3.19 -0.18 -0.70 0.26 71.09 -24.17 -20.22 9.84 6.21 -1.27 10.17 -0.26 -13.31 -0.01 -0.80 0.01 -160.87 -29.00 -76.03 -13.23 -28.65 3.45 -34.43 12.82 12.30 -6.22 0.15 3.42 -6.45 7.45 3.51 3.69 -9.90 13.87 0.10 5.02 0.21 0.33 -5.90 19.54 -16.35 12.51 0.81 0.13 3.37 -0.08 0.09 32.52 -26.90 
